<?xml version="1.0" encoding="utf-8"?>
<!-- Generator: Adobe Illustrator 18.0.0, SVG Export Plug-In . SVG Version: 6.00 Build 0)  -->
<!DOCTYPE svg PUBLIC "-//W3C//DTD SVG 1.1//EN" "http://www.w3.org/Graphics/SVG/1.1/DTD/svg11.dtd">
<svg version="1.1" id="Icon_Set" xmlns="http://www.w3.org/2000/svg" xmlns:xlink="http://www.w3.org/1999/xlink" x="0px" y="0px"
	 viewBox="0 0 512 512" style="enable-background:new 0 0 512 512;" xml:space="preserve">
<style type="text/css">
	.st0{fill:#4C4372;}
	.st1{fill:#F0C48A;}
	.st2{fill:#FD919E;}
	.st3{fill:#E8677D;}
	.st4{fill:#D3E6F8;}
	.st5{fill:#A4CFF2;}
	.st6{fill:#7BABF1;}
	.st7{fill:#FFFFFF;}
</style>
<g>
	<g>
		<g>
			<g>
				<circle class="st1" cx="256" cy="256" r="207"/>
			</g>
		</g>
	</g>
	<g>
		<g>
			<g>
				<rect x="376.69" y="233.188" class="st2" width="117.675" height="117.675"/>
			</g>
		</g>
		<g>
			<g>
				<rect x="463.584" y="233.188" class="st3" width="30.781" height="117.675"/>
			</g>
		</g>
		<g>
			<g>
				<path class="st4" d="M135.442,320.046v-82.277H40.199c-18.963,0-34.337,15.373-34.337,34.336v110.373h129.58h195.596v-62.432
					H135.442z"/>
			</g>
		</g>
		<g>
			<g>
				<path class="st2" d="M29.097,313.427H5.862v-46.469h23.234c12.832,0,23.235,10.402,23.235,23.234l0,0
					C52.332,303.024,41.929,313.427,29.097,313.427z"/>
			</g>
		</g>
		<g>
			<g>
				<path class="st3" d="M52.332,290.192L52.332,290.192c0-12.832-10.402-23.234-23.235-23.234v46.469
					C41.929,313.427,52.332,303.024,52.332,290.192z"/>
			</g>
		</g>
		<g>
			<g>
				<rect x="348.713" y="351.133" class="st2" width="157.424" height="35.925"/>
			</g>
		</g>
		<g>
			<g>
				<rect x="450.995" y="351.133" class="st3" width="55.143" height="35.925"/>
			</g>
		</g>
		<g>
			<g>
				<path class="st0" d="M506.137,392.921H348.713c-3.237,0-5.862-2.625-5.862-5.862v-35.926c0-3.238,2.625-5.863,5.862-5.863
					h157.424c3.238,0,5.863,2.625,5.863,5.863v35.926C512,390.296,509.375,392.921,506.137,392.921z M354.576,381.195h145.698v-24.2
					H354.576V381.195z"/>
			</g>
		</g>
		<g>
			<g>
				<rect x="70.652" y="125.095" class="st4" width="30.54" height="112.673"/>
			</g>
		</g>
		<g>
			<g>
				<rect x="70.652" y="197.156" class="st5" width="30.54" height="40.611"/>
			</g>
		</g>
		<g>
			<g>
				<rect x="193.029" y="320.309" class="st5" width="136.675" height="62.169"/>
			</g>
		</g>
		<g>
			<g>
				<path class="st0" d="M331.039,388.341H5.862c-3.237,0-5.862-2.625-5.862-5.862V272.105c0-22.167,18.033-40.2,40.199-40.2h95.243
					c3.238,0,5.863,2.625,5.863,5.863v76.416h189.734c3.237,0,5.862,2.625,5.862,5.862v62.432
					C336.901,385.716,334.276,388.341,331.039,388.341z M11.725,376.615h313.451v-50.706H135.442c-3.237,0-5.862-2.625-5.862-5.862
					v-76.416H40.199c-15.701,0-28.474,12.773-28.474,28.475V376.615z"/>
			</g>
		</g>
		<g>
			<g>
				<path class="st7" d="M284.866,320.046H101.192V125.095h37.855c67.69,0,125.079,49.773,134.652,116.782L284.866,320.046z"/>
			</g>
		</g>
		<g>
			<g>
				<path class="st4" d="M123.777,142.985c67.69,0,125.08,49.773,134.652,116.783l8.611,60.277h17.826l-11.167-78.169
					c-9.573-67.009-66.962-116.782-134.652-116.782h-37.855v17.891H123.777z"/>
			</g>
		</g>
		<g>
			<g>
				<path class="st0" d="M284.866,325.908H101.192c-3.237,0-5.862-2.625-5.862-5.862V125.095c0-3.238,2.625-5.863,5.862-5.863
					h37.855c34.149,0,67.164,12.323,92.961,34.697c25.798,22.374,42.665,53.314,47.495,87.12l11.167,78.168
					c0.24,1.682-0.261,3.387-1.375,4.671C288.182,325.171,286.565,325.908,284.866,325.908z M107.055,314.184h171.052
					l-10.211-71.477c-4.431-31.013-19.904-59.396-43.57-79.921s-53.952-31.829-85.279-31.829h-31.992V314.184z"/>
			</g>
		</g>
		<g>
			<g>
				<path class="st6" d="M101.192,252.373h92.533c12.226,0,22.138,9.911,22.138,22.138v45.535h-114.67V252.373z"/>
			</g>
		</g>
		<g>
			<g>
				<path class="st0" d="M215.862,325.908h-114.67c-3.237,0-5.862-2.625-5.862-5.862v-67.673c0-3.237,2.625-5.862,5.862-5.862
					h92.533c15.439,0,28.001,12.561,28.001,28v45.535C221.725,323.283,219.1,325.908,215.862,325.908z M107.055,314.184H210v-39.673
					c0-8.975-7.301-16.275-16.275-16.275h-86.67V314.184z"/>
			</g>
		</g>
		<g>
			<g>
				<path class="st0" d="M101.192,243.631h-30.54c-3.237,0-5.862-2.625-5.862-5.862V125.095c0-3.238,2.625-5.863,5.862-5.863h30.54
					c3.238,0,5.863,2.625,5.863,5.863v112.674C107.055,241.006,104.43,243.631,101.192,243.631z M76.515,231.905H95.33V130.957
					H76.515V231.905z"/>
			</g>
		</g>
		<g>
			<g>
				<rect x="304.032" y="83.604" class="st4" width="27.007" height="236.442"/>
			</g>
		</g>
		<g>
			<g>
				<rect x="304.032" y="262.731" class="st5" width="27.007" height="57.314"/>
			</g>
		</g>
		<g>
			<g>
				<rect x="331.039" y="142.985" class="st6" width="25.217" height="239.492"/>
			</g>
		</g>
		<g>
			<g>
				<path class="st0" d="M331.039,325.908h-27.007c-3.238,0-5.863-2.625-5.863-5.862V83.604c0-3.237,2.625-5.862,5.863-5.862h27.007
					c3.237,0,5.862,2.625,5.862,5.862v236.442C336.901,323.283,334.276,325.908,331.039,325.908z M309.895,314.184h15.282V89.467
					h-15.282V314.184z"/>
			</g>
		</g>
		<g>
			<g>
				<path class="st0" d="M356.255,388.34h-25.216c-3.238,0-5.863-2.625-5.863-5.862V142.985c0-3.237,2.624-5.862,5.863-5.862h25.216
					c3.238,0,5.863,2.625,5.863,5.862v239.492C362.118,385.715,359.493,388.34,356.255,388.34z M336.901,376.614h13.491V148.849
					h-13.491V376.614z"/>
			</g>
		</g>
		<g>
			<g>
				<path class="st0" d="M29.097,319.289H5.862c-3.237,0-5.862-2.625-5.862-5.862v-46.469c0-3.237,2.625-5.862,5.862-5.862h23.235
					c16.044,0,29.097,13.052,29.097,29.096C58.194,306.235,45.141,319.289,29.097,319.289z M11.725,307.564h17.372
					c9.579,0,17.372-7.792,17.372-17.372c0-9.578-7.793-17.371-17.372-17.371H11.725V307.564z"/>
			</g>
		</g>
		<g>
			<g>
				<circle class="st6" cx="78.965" cy="383.621" r="44.775"/>
			</g>
		</g>
		<g>
			<g>
				<path class="st0" d="M78.964,434.259c-27.922,0-50.637-22.716-50.637-50.638s22.715-50.638,50.637-50.638
					c27.922,0,50.638,22.716,50.638,50.638S106.886,434.259,78.964,434.259z M78.964,344.709c-21.456,0-38.912,17.456-38.912,38.912
					c0,21.456,17.456,38.912,38.912,38.912c21.456,0,38.912-17.456,38.912-38.912C117.876,362.165,100.42,344.709,78.964,344.709z"
					/>
			</g>
		</g>
		<g>
			<g>
				<circle class="st6" cx="294.473" cy="363.88" r="64.516"/>
			</g>
		</g>
		<g>
			<g>
				<path class="st0" d="M294.473,434.259c-38.807,0-70.379-31.572-70.379-70.379c0-38.808,31.572-70.379,70.379-70.379
					c38.807,0,70.379,31.571,70.379,70.379C364.852,402.686,333.28,434.259,294.473,434.259z M294.473,305.227
					c-32.342,0-58.654,26.311-58.654,58.653s26.312,58.653,58.654,58.653c32.341,0,58.653-26.311,58.653-58.653
					S326.814,305.227,294.473,305.227z"/>
			</g>
		</g>
		<g>
			<g>
				<circle class="st7" cx="294.473" cy="363.88" r="33.234"/>
			</g>
		</g>
		<g>
			<g>
				<path class="st4" d="M313.463,336.613c2.942,4.959,4.637,10.744,4.637,16.929c0,18.355-14.879,33.233-33.234,33.233
					c-7.063,0-13.606-2.21-18.991-5.967c5.79,9.759,16.427,16.305,28.597,16.305c18.354,0,33.234-14.879,33.234-33.233
					C327.706,352.589,322.07,342.619,313.463,336.613z"/>
			</g>
		</g>
		<g>
			<g>
				<path class="st0" d="M294.473,402.977c-21.558,0-39.096-17.538-39.096-39.097c0-21.559,17.539-39.097,39.096-39.097
					c21.558,0,39.096,17.538,39.096,39.097C333.569,385.439,316.03,402.977,294.473,402.977z M294.473,336.509
					c-15.092,0-27.371,12.278-27.371,27.371c0,15.093,12.278,27.371,27.371,27.371c15.093,0,27.371-12.278,27.371-27.371
					C321.844,348.787,309.565,336.509,294.473,336.509z"/>
			</g>
		</g>
		<g>
			<g>
				<circle class="st0" cx="294.473" cy="363.88" r="12.618"/>
			</g>
		</g>
		<g>
			<g>
				<circle class="st7" cx="78.965" cy="383.621" r="19.742"/>
			</g>
		</g>
		<g>
			<g>
				<path class="st4" d="M89.489,366.94c1.48,2.77,2.325,5.931,2.325,9.29c0,10.903-8.838,19.741-19.741,19.741
					c-3.874,0-7.476-1.132-10.524-3.06c3.324,6.218,9.873,10.451,17.416,10.451c10.902,0,19.741-8.839,19.741-19.741
					C98.706,376.592,95.021,370.438,89.489,366.94z"/>
			</g>
		</g>
		<g>
			<g>
				<path class="st0" d="M78.964,409.226c-14.118,0-25.604-11.486-25.604-25.604s11.486-25.603,25.604-25.603
					c14.119,0,25.604,11.485,25.604,25.603S93.083,409.226,78.964,409.226z M78.964,369.742c-7.652,0-13.878,6.227-13.878,13.879
					c0,7.652,6.226,13.879,13.878,13.879c7.653,0,13.879-6.227,13.879-13.879C92.843,375.969,86.617,369.742,78.964,369.742z"/>
			</g>
		</g>
		<g>
			<g>
				<path class="st2" d="M163.731,252.373h-37.504v-62.507c0-10.356,8.395-18.753,18.752-18.753l0,0
					c10.356,0,18.752,8.396,18.752,18.753V252.373z"/>
			</g>
		</g>
		<g>
			<g>
				<path class="st3" d="M147.488,171.301v81.072h16.244v-62.507C163.731,180.362,156.655,172.529,147.488,171.301z"/>
			</g>
		</g>
		<g>
			<g>
				<path class="st0" d="M163.731,258.235h-37.504c-3.238,0-5.863-2.625-5.863-5.862v-62.508c0-13.572,11.042-24.614,24.615-24.614
					c13.572,0,24.614,11.042,24.614,24.614v62.508C169.594,255.61,166.969,258.235,163.731,258.235z M132.089,246.511h25.779
					v-56.645c0-7.106-5.782-12.889-12.889-12.889c-7.107,0-12.89,5.782-12.89,12.889V246.511z"/>
			</g>
		</g>
		<g>
			<g>
				<path class="st0" d="M494.365,356.727H376.689c-3.237,0-5.862-2.625-5.862-5.863V233.189c0-3.238,2.625-5.863,5.862-5.863
					h117.675c3.238,0,5.863,2.625,5.863,5.863v117.675C500.227,354.102,497.603,356.727,494.365,356.727z M382.552,345.001h105.95
					v-105.95h-105.95V345.001z"/>
			</g>
		</g>
		<g>
			<g>
				<path class="st0" d="M494.365,356.727c-1.5,0-3.001-0.573-4.146-1.718L372.544,237.333c-2.289-2.289-2.289-6.001,0-8.29
					c2.29-2.29,6.002-2.29,8.291,0L498.51,346.719c2.289,2.289,2.289,6.001,0,8.29C497.366,356.153,495.865,356.727,494.365,356.727
					z"/>
			</g>
		</g>
		<g>
			<g>
				<path class="st0" d="M376.689,356.727c-1.5,0-3.001-0.573-4.146-1.718c-2.289-2.289-2.289-6.001,0-8.29l117.675-117.676
					c2.289-2.29,6.002-2.29,8.291,0c2.289,2.289,2.289,6.001,0,8.29L380.835,355.009C379.69,356.153,378.19,356.727,376.689,356.727
					z"/>
			</g>
		</g>
		<g>
			<g>
				<rect x="376.69" y="115.513" class="st2" width="117.675" height="117.676"/>
			</g>
		</g>
		<g>
			<g>
				<rect x="463.584" y="115.513" class="st3" width="30.781" height="117.676"/>
			</g>
		</g>
		<g>
			<g>
				<path class="st0" d="M494.365,239.051H376.689c-3.237,0-5.862-2.625-5.862-5.862V115.513c0-3.238,2.625-5.863,5.862-5.863
					h117.675c3.238,0,5.863,2.625,5.863,5.863v117.676C500.227,236.426,497.603,239.051,494.365,239.051z M382.552,227.325h105.95
					v-105.95h-105.95V227.325z"/>
			</g>
		</g>
		<g>
			<g>
				<path class="st0" d="M494.365,239.051c-1.5,0-3.001-0.572-4.146-1.718L372.544,119.657c-2.289-2.289-2.289-6.001,0-8.29
					c2.29-2.29,6.002-2.29,8.291,0L498.51,229.043c2.289,2.289,2.289,6.001,0,8.29C497.366,238.479,495.865,239.051,494.365,239.051
					z"/>
			</g>
		</g>
		<g>
			<g>
				<path class="st0" d="M376.689,239.051c-1.5,0-3.001-0.572-4.146-1.718c-2.289-2.289-2.289-6.001,0-8.29l117.675-117.676
					c2.289-2.29,6.002-2.29,8.291,0c2.289,2.289,2.289,6.001,0,8.29L380.835,237.333C379.69,238.479,378.19,239.051,376.689,239.051
					z"/>
			</g>
		</g>
	</g>
</g>
</svg>
